<svg version="1" xmlns="http://www.w3.org/2000/svg" width="749.333" height="749.333" viewBox="0 0 562.000000 562.000000"><path d="M222 1.5c-6 1.9-12.2 7.3-15.1 13.2-2.1 4.5-2.3 6.3-2.7 27.3l-.4 22.6-5.7 2.1c-3.1 1.2-8 3.2-10.9 4.4l-5.2 2.3-15.3-15.1c-8.3-8.3-16.8-15.9-18.7-16.9-4.9-2.6-18.1-2.6-23 0-4.8 2.5-79.5 77-82.8 82.6-2.3 3.9-2.7 5.6-2.7 12.5 0 5.9.5 8.9 1.9 11.5 1 1.9 8.6 10.3 16.8 18.7l15 15.1-4.3 11-4.4 11-22.5.4c-21 .4-22.8.6-27.3 2.7-2.6 1.3-6.3 4.2-8.2 6.4C.1 220.8 0 221.4 0 281c0 59.1.1 60.1 6.1 67.3 6.3 7.6 8.5 8.1 34.7 8.7l23.3.5 4.6 11.3 4.6 11.4-15.1 15.1c-8.2 8.4-15.8 16.8-16.8 18.7-1.4 2.6-1.9 5.6-1.9 11.5 0 6.9.4 8.6 2.7 12.5 3.3 5.6 78 80.1 82.8 82.6 4.9 2.6 18.1 2.6 23 0 1.9-1 10.4-8.6 18.7-16.9l15.3-15.1 5.2 2.3c2.9 1.2 7.8 3.2 10.9 4.4l5.7 2.1.4 22.6c.4 21 .6 22.8 2.7 27.3 3 6.1 9.1 11.3 15.5 13.2 7.3 2.2 109.9 2.2 117.2 0 6.4-1.9 11.8-6.5 15.1-12.9 2.7-5 2.7-5.6 3.1-27.6l.4-22.5 11-4.4 11-4.3 15.1 15c8.4 8.2 16.8 15.8 18.7 16.8 4.9 2.6 18.1 2.6 23 0 4.8-2.5 79.5-77 82.8-82.6 2.3-3.9 2.7-5.6 2.7-12.5 0-5.9-.5-8.9-1.9-11.5-1-1.9-8.6-10.3-16.8-18.7l-15.1-15.1 4.6-11.4 4.6-11.3 23.3-.5c26.2-.6 28.4-1.1 34.7-8.7 6-7.2 6.1-8.2 6.1-67.3 0-59.6-.1-60.2-6.5-67.7-1.9-2.2-5.6-5.1-8.2-6.4-4.5-2.1-6.3-2.3-27.3-2.7l-22.5-.4-4.4-11-4.3-11 15-15.1c8.2-8.4 15.8-16.8 16.8-18.7 1.4-2.6 1.9-5.6 1.9-11.5 0-6.9-.4-8.6-2.7-12.5-3.3-5.6-78-80.1-82.8-82.6-4.9-2.6-18.1-2.6-23 0-1.9 1-10.3 8.6-18.7 16.8l-15.1 15-11-4.3-11-4.4-.4-22.5c-.4-22-.4-22.6-3.1-27.6-3.3-6.4-8.7-11-15.1-12.9-7.1-2.1-110.8-2.1-117.6 0zm85 68.7c0 22.2.6 24.5 8.1 31.4 3.8 3.4 6.6 4.7 19.3 8.8 9.8 3.1 19.9 7.3 29.4 12.2 12.8 6.5 15.2 7.4 20 7.4 10.4 0 12.5-1.2 27.3-15.7 7.4-7.3 14-13.3 14.5-13.3 1.2 0 35.4 34.2 35.4 35.4 0 .5-6 7.1-13.3 14.5-14.5 14.8-15.7 16.9-15.7 27.2 0 4.8.9 7.3 7.5 20.3 4.8 9.6 9.2 20.2 12.2 29.5 4 12.4 5.3 15.2 8.7 19 6.9 7.5 9.2 8.1 31.4 8.1H511v52h-19.2c-22.2 0-24.5.6-31.4 8.1-3.4 3.8-4.7 6.6-8.7 19-3 9.3-7.4 19.9-12.2 29.5-6.6 13-7.5 15.5-7.5 20.3 0 10.3 1.2 12.4 15.7 27.2 7.3 7.4 13.3 14 13.3 14.5 0 1.2-34.2 35.4-35.4 35.4-.5 0-7.1-6-14.5-13.3-14.8-14.5-16.9-15.7-27.2-15.7-4.8 0-7.3.9-20.3 7.5-9.6 4.8-20.2 9.2-29.5 12.2-12.4 4-15.2 5.3-19 8.7-7.5 6.9-8.1 9.2-8.1 31.3V511h-52v-19.3c0-22.1-.6-24.4-8.1-31.3-3.8-3.4-6.6-4.7-19-8.7-9.3-3-19.9-7.4-29.5-12.2-13-6.6-15.5-7.5-20.3-7.5-10.3 0-12.4 1.2-27.2 15.7-7.4 7.3-14 13.3-14.5 13.3-1.2 0-35.4-34.2-35.4-35.4 0-.5 6-7.1 13.3-14.5 14.5-14.8 15.7-16.9 15.7-27.2 0-4.8-.9-7.3-7.5-20.3-4.8-9.6-9.2-20.2-12.2-29.5-4-12.4-5.3-15.2-8.7-19-6.9-7.5-9.2-8.1-31.3-8.1H51v-52h19.2c21.9 0 24.5-.7 31.5-8.3 3.3-3.6 4.7-6.6 8.6-18.8 3-9.3 7.4-19.9 12.2-29.5 6.6-13 7.5-15.5 7.5-20.3 0-10.3-1.2-12.4-15.7-27.2-7.3-7.4-13.3-14-13.3-14.5 0-1.2 34.2-35.4 35.4-35.4.5 0 7.1 6 14.5 13.3 14.8 14.5 16.9 15.7 27.2 15.7 4.8 0 7.3-.9 20.3-7.5 9.6-4.8 20.2-9.2 29.5-12.2 12.2-3.9 15.2-5.3 18.8-8.6 7.6-7 8.3-9.6 8.3-31.5V51h52v19.2z"/><path d="M229.5 206.9c-5.1 2.3-11.8 9.8-13.3 14.9-1.7 5.6-1.7 112.8 0 118.4 1.5 5.1 8.2 12.6 13.3 14.9 4.8 2.2 15.1 2.5 19.8.6 1.8-.8 21.9-13 44.7-27.2 43.6-27.1 49.5-31.6 51.8-39.1 2.9-9.7.8-18.7-5.8-25.5-2.9-3-19-13.6-46-30.4-22.8-14.2-42.9-26.4-44.7-27.2-4.7-1.9-15-1.6-19.8.6z"/></svg>