<?xml version="1.0" encoding="UTF-8" standalone="no"?>
<!-- Created with Inkscape (http://www.inkscape.org/) -->

<svg
   xmlns:dc="http://purl.org/dc/elements/1.1/"
   xmlns:cc="http://creativecommons.org/ns#"
   xmlns:rdf="http://www.w3.org/1999/02/22-rdf-syntax-ns#"
   xmlns:svg="http://www.w3.org/2000/svg"
   xmlns="http://www.w3.org/2000/svg"
   xmlns:sodipodi="http://sodipodi.sourceforge.net/DTD/sodipodi-0.dtd"
   xmlns:inkscape="http://www.inkscape.org/namespaces/inkscape"
   width="136.71103mm"
   height="150.06056mm"
   viewBox="0 0 136.71103 150.06056"
   version="1.1"
   id="svg8"
   inkscape:version="0.92.4 (5da689c313, 2019-01-14)"
   sodipodi:docname="drawing.svg">
  <defs
     id="defs2" />
  <sodipodi:namedview
     id="base"
     pagecolor="#ffffff"
     bordercolor="#666666"
     borderopacity="1.0"
     inkscape:pageopacity="0.0"
     inkscape:pageshadow="2"
     inkscape:zoom="0.49497475"
     inkscape:cx="-140.87062"
     inkscape:cy="322.27435"
     inkscape:document-units="mm"
     inkscape:current-layer="layer1"
     showgrid="false"
     inkscape:window-width="1920"
     inkscape:window-height="1017"
     inkscape:window-x="1912"
     inkscape:window-y="-8"
     inkscape:window-maximized="1"
     fit-margin-top="0"
     fit-margin-left="0"
     fit-margin-right="0"
     fit-margin-bottom="0" />
  <metadata
     id="metadata5">
    <rdf:RDF>
      <cc:Work
         rdf:about="">
        <dc:format>image/svg+xml</dc:format>
        <dc:type
           rdf:resource="http://purl.org/dc/dcmitype/StillImage" />
        <dc:title></dc:title>
      </cc:Work>
    </rdf:RDF>
  </metadata>
  <g
     inkscape:label="Layer 1"
     inkscape:groupmode="layer"
     id="layer1"
     transform="translate(-37.917241,-39.591986)">
    <flowRoot
       xml:space="preserve"
       id="flowRoot4020"
       style="font-style:normal;font-weight:normal;font-size:40px;line-height:1.25;font-family:sans-serif;letter-spacing:0px;word-spacing:0px;fill:#000000;fill-opacity:1;stroke:none"><flowRegion
         id="flowRegion4022"><rect
           id="rect4024"
           width="878.57141"
           height="251.42857"
           x="-721.42859"
           y="131.09111" /></flowRegion><flowPara
         id="flowPara4026" /></flowRoot>    <flowRoot
       xml:space="preserve"
       id="flowRoot4173"
       style="font-style:normal;font-weight:normal;font-size:40px;line-height:1.25;font-family:sans-serif;letter-spacing:0px;word-spacing:0px;fill:#000000;fill-opacity:1;stroke:none"><flowRegion
         id="flowRegion4175"><rect
           id="rect4177"
           width="1210.1627"
           height="951.56372"
           x="-157.5838"
           y="15.392496" /></flowRegion><flowPara
         id="flowPara4179" /></flowRoot>    <g
       id="g4227">
      <text
         id="text3917"
         y="172.96545"
         x="37.873833"
         style="font-style:normal;font-variant:normal;font-weight:normal;font-stretch:normal;font-size:10.58333302px;line-height:1.25;font-family:'Copperplate Gothic Bold';-inkscape-font-specification:'Copperplate Gothic Bold, ';letter-spacing:0px;word-spacing:0px;fill:#000000;fill-opacity:1;stroke:none;stroke-width:0.26458332"
         xml:space="preserve"><tspan
           style="font-style:normal;font-variant:normal;font-weight:normal;font-stretch:normal;font-size:12.69999981px;font-family:'Copperplate Gothic Bold';-inkscape-font-specification:'Copperplate Gothic Bold, ';stroke-width:0.26458332"
           y="172.96545"
           x="37.873833"
           id="tspan3915"
           sodipodi:role="line">AUTOMATE THINGS</tspan></text>
      <g
         transform="translate(-7.1533512,-18.174328)"
         id="g4171">
        <g
           id="g3913"
           transform="matrix(0.59765395,0,0,0.59765395,57.072915,57.705944)">
          <g
             id="g3857">
            <path
               id="path3855"
               d="m 188.113,86.183 c -0.565,-1.339 -2.209,-1.86 -3.628,-1.598 -0.219,-1.752 -1.422,-3.451 -3.66,-3.679 -10.443,-1.059 -19.727,-4.783 -22.276,-15.842 -2.082,-9.025 3.134,-17.93 8.526,-24.988 0.231,0.039 0.462,0.113 0.694,0.124 1.667,0.076 3.434,-1.552 3.277,-3.276 -0.433,-4.738 -6.297,-7.345 -9.998,-9.519 -4.053,-2.381 -8.375,-4.653 -12.866,-6.086 -0.975,-0.311 -2.311,0.002 -2.991,0.79 -0.048,0.056 -0.087,0.107 -0.133,0.16 -0.154,-3.224 -4.318,-4.449 -6.405,-1.611 -3.562,4.846 -5.662,12.705 -11.984,14.785 -4.281,1.408 -8.693,-4.555 -10.756,-7.393 -3.126,-4.301 -5.525,-9.288 -7.54,-14.189 -1.084,-2.638 -1.583,-5.335 -3.285,-7.365 0.374,-0.223 0.754,-0.438 1.073,-0.718 1.912,-1.676 0.679,-4.528 -1.39,-5.264 C 100.699,-0.934 93.93,1.84 89.695,2.488 85.673,3.104 80.094,2.78 76.79,5.424 c -0.806,0.644 -0.375,1.781 0.295,2.287 0.635,0.479 1.393,0.78 2.196,1.012 -0.229,3.89 1.232,7.492 0.395,11.514 -1.019,4.893 -4.926,8.111 -9.108,10.316 -10.573,5.575 -22.729,0.93 -31.596,-5.506 1.169,-3.225 -3.567,-6.812 -6.243,-2.948 -2.153,3.108 -4.545,6.093 -6.61,9.227 -1.216,-0.517 -2.594,1.084 -1.494,2.207 0.027,0.027 0.056,0.055 0.083,0.081 -1.532,2.643 -2.76,5.426 -3.339,8.521 -3.546,-1.522 -7.524,2.999 -4.335,6.245 5.583,5.684 10.28,12.197 10.371,20.467 0.111,10.041 -12.299,7.716 -18.483,6.012 -2.126,-0.586 -3.349,0.954 -3.342,2.577 -1.376,-0.093 -2.835,0.591 -3.32,2.178 -2.25,7.372 -2.278,16.326 -1.053,24.187 -2.214,2.303 -1.404,7.001 2.622,6.766 25.21,-1.467 35.07,24.807 15.582,40.594 -0.979,0.793 -0.985,1.885 -0.516,2.787 -0.408,0.737 0.292,1.896 1.178,1.528 -0.078,0.032 5.536,5.162 6.19,5.723 3.308,2.836 6.855,5.672 9.823,8.86 3.559,3.824 9.016,-2.97 4.39,-5.689 -4.91,-2.887 -9.081,-6.949 -14.066,-9.753 -0.477,-0.269 -1.037,-0.561 -1.635,-0.828 1.767,-1.225 3.367,-2.59 4.813,-4.056 2.314,1.276 4.61,2.573 6.843,4.022 3.258,2.113 6.411,4.952 10.082,6.283 -2.267,2.858 -3.821,6.363 -4.302,10.361 -0.261,2.17 3.302,3.13 4.172,1.13 3.953,-9.084 11.503,-13.826 21.442,-11.332 3.985,1 7.358,3.58 9.537,7.015 2.971,4.681 0.148,9.53 2.018,14.112 0.479,1.174 1.392,1.888 2.413,2.036 0.301,0.632 0.963,1.164 1.591,1.317 4.375,1.061 9.04,1.188 13.503,1.687 4.787,0.535 9.538,1.582 14.299,2.094 4.215,0.452 4.481,-5.717 0.944,-6.972 -2.645,-0.938 -5.914,-1.042 -9.013,-1.095 -0.875,-0.866 -2.042,-1.374 -3.132,-2.036 -1.914,-1.165 -3.744,-2.482 -5.516,-3.851 -2.403,-1.857 -5.208,-4.009 -7.137,-6.365 -0.385,-0.47 -0.987,-0.41 -1.428,-0.108 -0.401,-1.299 -0.865,-2.512 -1.339,-3.556 -2.676,-5.892 -8.793,-9.693 -14.756,-11.483 -4.143,-1.244 -8.326,-1.21 -12.157,-0.182 -0.032,-0.354 -0.162,-0.707 -0.414,-1.004 -2.183,-2.572 -5.961,-4.091 -8.82,-5.774 -4.029,-2.373 -8.03,-4.8 -11.904,-7.419 -0.013,-0.008 -0.025,-0.007 -0.037,-0.015 1.499,-4.564 1.689,-9.571 0.467,-14.754 23.454,19.26 49.162,36.81 74.598,52.779 0.688,0.433 1.388,0.366 1.971,0.062 0.522,2.813 1.42,5.581 2.631,8.115 1.32,2.762 5.671,0.798 4.857,-2.049 -2.075,-7.262 -3.084,-17.917 5.501,-21.464 7.384,-3.051 13.521,2.167 15.525,9.046 0.769,2.634 3.286,3.213 5.22,2.407 1.317,0.876 3.27,0.852 4.221,-0.843 2.542,-4.529 5.304,-8.802 8.378,-12.995 1.883,-2.568 4.407,-4.784 5.101,-7.991 0.266,-1.222 -0.144,-2.278 -0.877,-2.983 0.43,-0.961 0.261,-2.128 -0.948,-2.722 -11.224,-5.501 -14.664,-14.932 -7.96,-25.796 2.557,-4.143 6.565,-7.459 11.211,-8.931 5.079,-1.611 8.327,2.318 13.002,1.971 1.146,-0.084 2.044,-0.717 2.543,-1.597 0.85,-0.212 1.566,-0.828 1.787,-2.045 0.732,-4.074 1.727,-8.063 2.821,-12.056 0.905,-3.294 2.98,-7.276 1.587,-10.569 z M 86.804,171.85 c 1.381,1.967 3.304,3.586 5.153,5.168 1.269,1.084 2.623,2.065 3.969,3.054 -3.225,-0.217 -6.475,-0.438 -9.695,-0.381 0.968,-2.298 1.006,-5.103 0.573,-7.841 z M 144.483,25.307 c 0.244,0.684 0.707,1.311 1.329,1.633 3.621,1.872 7.15,3.923 10.587,6.112 1.678,1.068 3.485,2.789 5.379,4.276 -2.221,2.075 -4.116,4.413 -5.721,6.92 -4.083,-4.409 -10.059,-7.854 -15.605,-10.596 1.768,-2.587 3.172,-5.449 4.031,-8.345 z m -6.3,11.255 c 2.328,1.396 4.589,2.887 6.788,4.49 2.9,2.113 5.539,4.636 8.766,6.243 0.165,0.083 0.327,0.109 0.49,0.146 -0.528,1.053 -1.023,2.121 -1.44,3.221 -0.936,-0.51 -1.874,-0.966 -2.565,-1.407 -3.571,-2.288 -7.07,-4.686 -10.693,-6.892 -0.764,-0.466 -2.744,-1.713 -4.767,-2.553 1.221,-0.941 2.355,-2.049 3.421,-3.248 z M 100.075,8.073 c -0.542,3.025 0.688,6.574 1.978,9.697 -0.183,-0.142 -0.374,-0.278 -0.555,-0.422 -3.449,-2.735 -6.687,-5.715 -9.785,-8.837 2.512,-0.092 5.544,-0.048 8.362,-0.438 z M 88.356,8.765 c 4.805,5.703 10.593,11.143 16.656,15.843 2.511,5.453 5.785,10.737 10.229,14.716 5.567,4.985 11.436,5.003 16.514,2.381 2.715,1.565 11.033,6.962 11.804,7.542 1.791,1.347 4.889,4.508 7.866,5.969 -0.872,3.847 -1.102,7.877 -0.551,11.965 0.085,0.635 0.228,1.233 0.362,1.838 C 141.869,59.884 129.702,52.77 119.22,45.092 116.129,42.827 87.55,24.404 88.534,21.121 88.672,20.662 88.201,20.326 87.82,20.406 88.888,16.47 88.766,12.447 86.645,8.955 87.232,8.892 87.8,8.826 88.356,8.765 Z M 35.465,28.487 c 0.002,0.002 0.002,0.004 0.002,0.004 7.718,7.916 19.623,12.854 30.741,11.186 9.681,6.897 19.485,13.567 29.3,20.198 -4.643,-0.186 -9.4,0.419 -14.026,1.924 -0.703,0.229 -1.331,0.558 -2.004,0.825 -0.04,-0.148 -0.094,-0.299 -0.184,-0.447 C 75.73,56.246 66.441,52.095 60.886,48.114 52.639,42.203 44.469,36.183 36.312,30.148 c -1.029,-0.761 -2.357,0.966 -1.368,1.773 7.862,6.415 15.751,12.795 23.657,19.155 4.843,3.896 11.101,10.958 17.327,13.139 -1.265,0.672 -2.506,1.375 -3.665,2.166 C 65.878,61.266 58.367,57.284 51.712,52.511 44.06,47.023 36.793,41.006 29.852,34.642 31.521,32.388 33.37,30.27 35.465,28.487 Z m 70.43,86.271 c 1.195,0.939 2.421,1.841 3.638,2.754 -2.644,2.1 -5.822,3.9 -9.635,5.256 -1.246,0.443 -2.062,1.233 -2.521,2.154 -14.261,0.758 -26.362,-2.704 -31.6,-17.771 -4.833,-13.901 2.003,-28.297 14.365,-35.254 30.457,-17.14 51.692,23.557 31.779,43.485 -1.473,-0.904 -2.942,-1.816 -4.416,-2.712 -1.265,-0.769 -2.814,1.141 -1.61,2.088 z M 26.907,47.452 c -0.836,-1.019 -1.707,-1.985 -2.602,-2.89 1.002,-2.574 2.342,-5.106 3.882,-7.521 6.721,6.552 13.804,12.691 21.114,18.591 5.931,4.785 12.204,10.27 19.083,13.829 -1.669,1.516 -3.238,3.121 -4.592,4.895 -0.04,-0.387 -0.217,-0.763 -0.585,-1.063 C 57.755,68.844 51.518,65.266 45.735,61.245 39.35,56.805 33.207,52.02 26.907,47.452 Z m 5.277,8.317 c 3.277,2.497 6.568,4.979 9.857,7.455 5.885,4.431 12.144,11.065 19.309,13.265 0.312,0.097 0.613,0.069 0.9,-0.004 -2.394,3.647 -4.18,7.688 -5.236,11.974 -7.42,-5.272 -15.263,-10.081 -22.959,-14.97 1.881,-5.827 0.774,-12.07 -1.871,-17.72 z m 0.41,20.938 c 7.671,5.698 15.569,11.225 23.518,16.495 -0.394,3.226 -0.411,6.532 -0.022,9.849 -3.567,-2.665 -7.449,-5.084 -10.665,-7.563 -6.129,-4.723 -12.3,-9.553 -18.846,-13.739 2.421,-0.962 4.509,-2.587 6.015,-5.042 z m 12.918,71.891 c 2.735,1.771 5.66,4.13 8.756,5.443 -2.119,0.969 -4.086,2.232 -5.772,3.825 -0.034,-0.042 -0.051,-0.089 -0.091,-0.129 -2.858,-2.823 -6.97,-4.608 -10.446,-6.601 -2.129,-1.222 -4.321,-2.383 -6.579,-3.374 1.606,-1.936 2.912,-4.041 3.942,-6.264 3.264,2.557 6.711,4.846 10.19,7.1 z m 67.517,23.588 C 89.772,150.603 60.461,135.639 34.513,117.183 28.987,107.15 17.076,102.244 5.811,102.478 5.787,99.825 5.867,97.179 6.146,94.51 6.397,92.103 6.93,89.737 7.419,87.367 c 34.004,27.29 68.639,56.054 106.51,77.723 -0.659,2.252 -0.969,4.645 -0.9,7.096 z m 3.334,-12.19 C 79.66,135.806 45.247,107.961 7.888,84.857 c 0.244,-1.408 0.446,-2.821 0.503,-4.252 4.448,1.723 9.802,2.781 14.544,2.088 6.933,5.003 13.646,10.241 20.188,15.776 4.444,3.761 9.337,9.367 14.719,12.528 4.741,13.483 17.904,21.497 31.475,20.577 0.056,0.274 0.174,0.542 0.436,0.771 5.538,4.842 11.977,8.604 18.167,12.539 4.648,2.956 9.089,7.191 13.82,10.3 -2.269,1.27 -4.037,2.916 -5.377,4.812 z m 11.403,-6.917 c -3.169,-4.267 -9.098,-7.104 -13.41,-9.679 -6.938,-4.14 -13.884,-8.26 -20.807,-12.421 1.489,-0.309 2.973,-0.691 4.441,-1.229 0.842,0.985 2.158,1.549 3.819,1.271 11.635,7.379 22.959,15.257 34.536,22.726 -2.697,-0.872 -5.6,-1.172 -8.579,-0.668 z m 20.429,11.38 c -1.023,-2.251 -2.449,-4.224 -4.121,-5.913 1.851,1.139 3.679,2.311 5.552,3.411 -0.482,0.833 -0.995,1.649 -1.431,2.502 z m 5.524,-12.673 c 1.415,0.931 3.433,-0.607 2.888,-2.22 -0.265,-0.784 -0.643,-1.534 -1.06,-2.271 0.995,0.508 2.026,0.975 3.142,1.351 -2.068,1.802 -3.43,4.451 -4.928,6.698 -0.471,0.707 -0.948,1.46 -1.426,2.189 -15.683,-9.3 -31.463,-18.467 -47.376,-27.371 4.781,-1.536 8.917,-3.944 12.361,-6.98 4.253,3 8.544,5.952 12.766,8.984 8.234,5.922 15.298,14.137 23.633,19.62 z m -24.735,-51.351 c 2.975,2.041 5.951,4.08 8.916,6.135 3.621,2.509 7.145,5.896 11.147,7.897 -0.227,0.322 -0.487,0.637 -0.7,0.961 -1.646,2.501 -2.74,5.111 -3.404,7.73 -2.991,-2.688 -8.019,-4.287 -11.352,-5.962 -2.466,-1.24 -4.95,-2.442 -7.425,-3.667 -0.182,-0.089 -0.583,-0.232 -1.056,-0.398 2.02,-3.901 3.321,-8.201 3.874,-12.696 z m -1.133,17.856 c 2.9,1.719 5.856,3.348 8.777,5.029 2.238,1.288 4.838,3.546 7.429,3.913 0.064,0.009 0.131,-0.002 0.196,0 -0.266,3.875 0.484,7.649 2.16,10.976 -2.533,-1.818 -5.109,-3.464 -7.23,-4.979 -6.225,-4.447 -12.644,-8.666 -19.13,-12.772 1.279,-1.417 2.384,-2.965 3.407,-4.566 1.653,1.017 3.498,1.871 4.391,2.399 z m 23.707,-7.014 c -2.982,-2.677 -6.925,-4.541 -10.284,-6.599 -4.055,-2.482 -8.034,-5.093 -12.018,-7.689 0.13,-3.63 -0.211,-7.35 -1.081,-11.064 -0.382,-1.634 -0.898,-3.17 -1.475,-4.661 10.353,7.302 20.566,14.813 30.457,22.853 0.687,0.558 1.442,0.72 2.147,0.63 -2.934,1.647 -5.522,3.98 -7.746,6.53 z m 13.844,-8.806 c -1.506,0.266 -2.943,0.769 -4.335,1.39 0.896,-0.92 1.159,-2.362 -0.098,-3.554 -26.611,-25.225 -59.634,-42.413 -90.637,-61.585 1.379,-0.432 2.741,-0.945 4.064,-1.612 2.594,-1.308 5.206,-3.429 7.474,-5.997 10.73,13.378 24.141,24.229 37.754,34.569 16,12.156 33.776,27.589 51.913,36.478 -2.206,-0.148 -4.385,0 -6.135,0.311 z m 14.328,-6.603 c -0.558,2.44 -1.327,5.173 -1.712,7.86 -1.037,-0.517 -2.198,-0.868 -3.399,-1.128 1.068,-0.626 1.53,-2.137 0.497,-3.385 C 165.161,87.189 147.71,79.093 134.804,70.566 116.43,58.425 98.294,45.618 83.208,29.484 c 1.699,-2.21 3.103,-4.679 4.045,-7.224 0.629,6.225 17.866,17.202 20.762,19.513 13.539,10.797 27.015,22.047 41.038,32.202 1.383,1.002 2.823,0.195 3.468,-1.047 4.651,10.439 17.306,15.258 28.304,15.768 0.133,0.006 0.221,-0.047 0.345,-0.051 -0.721,2.376 -0.973,5.179 -1.44,7.223 z"
               inkscape:connector-curvature="0" />
          </g>
          <g
             id="g3859" />
          <g
             id="g3861" />
          <g
             id="g3863" />
          <g
             id="g3865" />
          <g
             id="g3867" />
          <g
             id="g3869" />
          <g
             id="g3871" />
          <g
             id="g3873" />
          <g
             id="g3875" />
          <g
             id="g3877" />
          <g
             id="g3879" />
          <g
             id="g3881" />
          <g
             id="g3883" />
          <g
             id="g3885" />
          <g
             id="g3887" />
        </g>
        <g
           id="g4132"
           transform="matrix(0.04263267,0,0,0.04263267,104.29596,105.47998)">
          <g
             id="g4075">
            <g
               id="g4073">
              <path
                 id="path4071"
                 d="M 393.538,203.629 102.557,5.543 C 92.764,-1.123 80.089,-1.829 69.617,3.711 59.145,9.249 52.595,20.124 52.595,31.971 v 396.173 c 0,11.846 6.55,22.721 17.022,28.26 10.471,5.539 23.147,4.834 32.94,-1.832 L 393.538,256.485 c 8.746,-5.954 13.98,-15.848 13.98,-26.428 0.001,-10.58 -5.233,-20.475 -13.98,-26.428 z"
                 inkscape:connector-curvature="0" />
            </g>
          </g>
          <g
             id="g4077" />
          <g
             id="g4079" />
          <g
             id="g4081" />
          <g
             id="g4083" />
          <g
             id="g4085" />
          <g
             id="g4087" />
          <g
             id="g4089" />
          <g
             id="g4091" />
          <g
             id="g4093" />
          <g
             id="g4095" />
          <g
             id="g4097" />
          <g
             id="g4099" />
          <g
             id="g4101" />
          <g
             id="g4103" />
          <g
             id="g4105" />
        </g>
      </g>
      <text
         id="text4183"
         y="186.35042"
         x="51.165012"
         style="font-style:normal;font-variant:normal;font-weight:normal;font-stretch:normal;font-size:10.58333302px;line-height:1.25;font-family:'Segoe Print';-inkscape-font-specification:'Segoe Print';letter-spacing:0px;word-spacing:0px;fill:#000000;fill-opacity:1;stroke:none;stroke-width:0.26458332"
         xml:space="preserve"><tspan
           style="font-style:normal;font-variant:normal;font-weight:normal;font-stretch:normal;font-family:'Segoe Print';-inkscape-font-specification:'Segoe Print';stroke-width:0.26458332"
           y="186.35042"
           x="51.165012"
           id="tspan4181"
           sodipodi:role="line">control is everything</tspan></text>
    </g>
  </g>
</svg>
